# xmcd CD database file
#
# Track frame offsets:
#	150
#	21683
#	30562
#	56354
#	79174
#	90829
#	104022
#	114399
#	154317
#	164314
#	167965
#	219199
#	229576
#	254140
#	269670
#
# Disc length: 3656 seconds
#
# Revision: 0
# Processed by: cddbd v1.5.1PL0 Copyright (c) Steve Scherf et al.
# Submitted via: CDex 1.51
#
DISCID=cb0e460f
DTITLE=The Chicago Underground Trio - Flamethrower
DYEAR=2000
DGENRE=Jazz
TTITLE0=Quail
TTITLE1=Fahrenheit 451
TTITLE2=Warm Marsh
TTITLE3=Antiquity
TTITLE4=Flamethrower
TTITLE5=Woman In Motion
TTITLE6=Triceptikon
TTITLE7=Lesson Earned
TTITLE8=Arcweld
TTITLE9=Elroy
TTITLE10=Number 19
TTITLE11=504
TTITLE12=Tungflec Treaty
TTITLE13=World Has Changed
TTITLE14=Elray
EXTD=YEAR: 2000
EXTT0=
EXTT1=
EXTT2=
EXTT3=
EXTT4=
EXTT5=
EXTT6=
EXTT7=
EXTT8=
EXTT9=
EXTT10=
EXTT11=
EXTT12=
EXTT13=
EXTT14=
PLAYORDER=
